<?xml version="1.0" encoding="UTF-8" standalone="no"?>
<!DOCTYPE svg PUBLIC "-//W3C//DTD SVG 1.1//EN" "http://www.w3.org/Graphics/SVG/1.1/DTD/svg11.dtd">
<svg width="100%" height="100%" viewBox="0 0 1548 321" version="1.1" xmlns="http://www.w3.org/2000/svg" xmlns:xlink="http://www.w3.org/1999/xlink" xml:space="preserve" xmlns:serif="http://www.serif.com/" style="fill-rule:evenodd;clip-rule:evenodd;stroke-linejoin:round;stroke-miterlimit:2;">
    <g transform="matrix(1,0,0,1,-2116.47,-453.006)">
        <g id="Artboard2" transform="matrix(0.859562,0,0,0.178057,412.423,453.006)">
            <rect x="1982.46" y="0" width="1800" height="1800" style="fill:none;"/>
            <g transform="matrix(1.16338,0,0,5.61618,1985.26,-5853.47)">
                <g transform="matrix(1.48958,0,0,1.48958,-213.016,732.04)">
                    <g transform="matrix(201.738,0,0,201.738,373.826,388.184)">
                        <path d="M0.176,-0.237L0.024,-0.237C0.023,-0.193 0.031,-0.155 0.048,-0.123C0.065,-0.091 0.087,-0.065 0.116,-0.044C0.144,-0.023 0.177,-0.008 0.214,0.002C0.251,0.011 0.289,0.016 0.328,0.016C0.377,0.016 0.42,0.01 0.457,-0.001C0.494,-0.012 0.525,-0.028 0.55,-0.049C0.575,-0.069 0.593,-0.093 0.606,-0.121C0.619,-0.149 0.625,-0.179 0.625,-0.212C0.625,-0.252 0.616,-0.285 0.6,-0.311C0.583,-0.336 0.562,-0.357 0.539,-0.372C0.516,-0.387 0.492,-0.399 0.469,-0.406C0.445,-0.413 0.426,-0.417 0.413,-0.42C0.368,-0.431 0.332,-0.441 0.305,-0.448C0.277,-0.455 0.255,-0.463 0.24,-0.47C0.224,-0.477 0.213,-0.485 0.208,-0.494C0.203,-0.503 0.2,-0.514 0.2,-0.528C0.2,-0.543 0.203,-0.556 0.21,-0.566C0.217,-0.576 0.225,-0.584 0.236,-0.591C0.246,-0.598 0.257,-0.602 0.27,-0.605C0.283,-0.608 0.295,-0.609 0.308,-0.609C0.327,-0.609 0.345,-0.607 0.362,-0.604C0.378,-0.601 0.392,-0.595 0.405,-0.587C0.418,-0.579 0.428,-0.568 0.436,-0.554C0.443,-0.54 0.448,-0.522 0.449,-0.501L0.601,-0.501C0.601,-0.542 0.593,-0.578 0.578,-0.607C0.562,-0.636 0.541,-0.659 0.514,-0.678C0.487,-0.697 0.457,-0.71 0.423,-0.719C0.388,-0.727 0.352,-0.731 0.315,-0.731C0.283,-0.731 0.251,-0.727 0.219,-0.718C0.187,-0.709 0.158,-0.696 0.133,-0.678C0.108,-0.66 0.087,-0.638 0.072,-0.611C0.056,-0.584 0.048,-0.552 0.048,-0.515C0.048,-0.482 0.054,-0.455 0.067,-0.432C0.079,-0.409 0.095,-0.389 0.115,-0.374C0.135,-0.359 0.158,-0.346 0.183,-0.337C0.208,-0.327 0.234,-0.319 0.261,-0.312C0.287,-0.305 0.313,-0.298 0.338,-0.292C0.363,-0.286 0.386,-0.279 0.406,-0.271C0.426,-0.263 0.442,-0.253 0.455,-0.241C0.467,-0.229 0.473,-0.213 0.473,-0.194C0.473,-0.176 0.468,-0.161 0.459,-0.15C0.45,-0.138 0.438,-0.129 0.424,-0.122C0.41,-0.115 0.395,-0.111 0.379,-0.109C0.363,-0.106 0.348,-0.105 0.334,-0.105C0.313,-0.105 0.293,-0.108 0.274,-0.113C0.255,-0.117 0.238,-0.125 0.224,-0.136C0.209,-0.146 0.198,-0.159 0.189,-0.176C0.18,-0.193 0.176,-0.213 0.176,-0.237Z" style="fill-rule:nonzero;"/>
                    </g>
                    <g transform="matrix(201.738,0,0,201.738,498.034,388.184)">
                        <path d="M0.539,0L0.539,-0.517L0.397,-0.517L0.397,-0.246C0.397,-0.193 0.388,-0.156 0.371,-0.133C0.354,-0.11 0.326,-0.098 0.287,-0.098C0.253,-0.098 0.229,-0.109 0.216,-0.13C0.203,-0.151 0.196,-0.182 0.196,-0.225L0.196,-0.517L0.054,-0.517L0.054,-0.199C0.054,-0.167 0.057,-0.138 0.063,-0.112C0.068,-0.085 0.078,-0.063 0.092,-0.045C0.106,-0.026 0.125,-0.012 0.15,-0.002C0.174,0.008 0.205,0.013 0.243,0.013C0.273,0.013 0.302,0.006 0.331,-0.007C0.36,-0.02 0.383,-0.042 0.401,-0.072L0.404,-0.072L0.404,0L0.539,0Z" style="fill-rule:nonzero;"/>
                    </g>
                    <g transform="matrix(-201.738,-2.47058e-14,2.47058e-14,-201.738,1069.37,283.684)">
                        <path d="M0.539,0L0.539,-0.517L0.397,-0.517L0.397,-0.246C0.397,-0.193 0.388,-0.156 0.371,-0.133C0.354,-0.11 0.326,-0.098 0.287,-0.098C0.253,-0.098 0.229,-0.109 0.216,-0.13C0.203,-0.151 0.196,-0.182 0.196,-0.225L0.196,-0.517L0.054,-0.517L0.054,-0.199C0.054,-0.167 0.057,-0.138 0.063,-0.112C0.068,-0.085 0.078,-0.063 0.092,-0.045C0.106,-0.026 0.125,-0.012 0.15,-0.002C0.174,0.008 0.205,0.013 0.243,0.013C0.273,0.013 0.302,0.006 0.331,-0.007C0.36,-0.02 0.383,-0.042 0.401,-0.072L0.404,-0.072L0.404,0L0.539,0Z" style="fill-rule:nonzero;"/>
                    </g>
                    <g transform="matrix(201.738,0,0,201.738,610.945,388.184)">
                        <path d="M0.054,-0.517L0.054,0L0.196,0L0.196,-0.233C0.196,-0.256 0.198,-0.278 0.203,-0.298C0.208,-0.318 0.216,-0.335 0.227,-0.351C0.238,-0.366 0.252,-0.377 0.27,-0.386C0.288,-0.395 0.31,-0.399 0.336,-0.399C0.345,-0.399 0.354,-0.399 0.363,-0.398C0.372,-0.397 0.38,-0.395 0.387,-0.394L0.387,-0.526C0.376,-0.529 0.365,-0.531 0.356,-0.531C0.338,-0.531 0.321,-0.528 0.304,-0.523C0.287,-0.518 0.272,-0.51 0.257,-0.501C0.242,-0.491 0.229,-0.479 0.218,-0.466C0.207,-0.452 0.198,-0.437 0.191,-0.421L0.189,-0.421L0.189,-0.517L0.054,-0.517Z" style="fill-rule:nonzero;"/>
                    </g>
                    <g transform="matrix(201.738,0,0,201.738,684.44,388.184)">
                        <path d="M0.406,-0.335L0.545,-0.335C0.543,-0.368 0.535,-0.397 0.521,-0.422C0.507,-0.446 0.489,-0.466 0.467,-0.483C0.444,-0.499 0.419,-0.511 0.391,-0.519C0.362,-0.527 0.333,-0.531 0.302,-0.531C0.26,-0.531 0.223,-0.524 0.19,-0.51C0.157,-0.496 0.13,-0.476 0.107,-0.452C0.084,-0.427 0.067,-0.397 0.056,-0.363C0.044,-0.328 0.038,-0.291 0.038,-0.251C0.038,-0.212 0.044,-0.177 0.057,-0.145C0.07,-0.112 0.087,-0.084 0.11,-0.061C0.133,-0.038 0.16,-0.02 0.193,-0.007C0.225,0.007 0.26,0.013 0.299,0.013C0.368,0.013 0.424,-0.005 0.468,-0.041C0.512,-0.077 0.539,-0.129 0.548,-0.198L0.411,-0.198C0.406,-0.166 0.395,-0.14 0.377,-0.122C0.358,-0.102 0.332,-0.093 0.298,-0.093C0.276,-0.093 0.257,-0.098 0.242,-0.108C0.227,-0.118 0.215,-0.131 0.206,-0.147C0.197,-0.162 0.19,-0.18 0.186,-0.199C0.182,-0.218 0.18,-0.237 0.18,-0.256C0.18,-0.275 0.182,-0.295 0.186,-0.315C0.19,-0.334 0.197,-0.352 0.207,-0.369C0.216,-0.385 0.229,-0.398 0.244,-0.409C0.259,-0.419 0.278,-0.424 0.301,-0.424C0.362,-0.424 0.397,-0.394 0.406,-0.335Z" style="fill-rule:nonzero;"/>
                    </g>
                    <g transform="matrix(201.738,0,0,201.738,794.19,388.184)">
                        <path d="M0.054,-0.714L0.054,0L0.196,0L0.196,-0.271C0.196,-0.324 0.205,-0.362 0.222,-0.385C0.239,-0.407 0.267,-0.419 0.306,-0.419C0.34,-0.419 0.364,-0.409 0.377,-0.388C0.39,-0.367 0.397,-0.335 0.397,-0.292L0.397,0L0.539,0L0.539,-0.318C0.539,-0.35 0.536,-0.379 0.531,-0.406C0.525,-0.432 0.515,-0.454 0.501,-0.473C0.487,-0.491 0.468,-0.505 0.444,-0.516C0.419,-0.526 0.388,-0.531 0.35,-0.531C0.323,-0.531 0.296,-0.524 0.268,-0.511C0.24,-0.497 0.217,-0.475 0.199,-0.445L0.196,-0.445L0.196,-0.714L0.054,-0.714Z" style="fill-rule:nonzero;"/>
                    </g>
                    <g transform="matrix(201.738,0,0,201.738,905.758,388.184)">
                        <rect x="0.058" y="-0.517" width="0.142" height="0.517"/>
                    </g>
                    <g transform="matrix(0.713879,0,0,0.713879,93.0109,-538.81)">
                        <circle cx="1174.95" cy="1113.29" r="21.336"/>
                    </g>
                </g>
                <g>
                    <g transform="matrix(1,0,0,1,-4.69242,-0.0449112)">
                        <path d="M605.869,1314.18C628.448,1289.46 645.665,1272.99 662.79,1285.87C651.955,1305.3 638.547,1313.39 605.869,1314.18Z"/>
                    </g>
                    <g transform="matrix(-1,-1.22465e-16,1.22465e-16,-1,1908.84,2464.79)">
                        <path d="M608.505,1313.81C606.305,1314.06 604.093,1314.18 601.869,1314.18C590.45,1314.18 581.084,1312.68 573.772,1309.67C566.459,1306.67 560.7,1302.41 556.493,1296.9C552.286,1291.39 549.331,1284.68 547.628,1276.77C545.925,1268.85 545.073,1260.09 545.073,1250.47L545.073,1154.91L587.745,1154.91L587.745,1242.66C587.745,1255.48 589.749,1265.05 593.755,1271.36C597.762,1277.67 604.874,1280.82 615.091,1280.82C626.711,1280.82 635.125,1277.37 640.334,1270.45C645.542,1263.54 648.147,1252.17 648.147,1236.35L648.147,1154.91L690.819,1154.91L690.819,1310.27L650.25,1310.27L650.25,1297.21C641.3,1307.37 629.278,1312.45 608.505,1313.81Z" style="fill-rule:nonzero;"/>
                    </g>
                    <g transform="matrix(-1,-1.22465e-16,1.22465e-16,-1,1409.55,2464.79)">
                        <path d="M605.847,1314.08C628.427,1289.36 651.654,1264.41 662.79,1285.87C651.955,1305.3 638.525,1313.29 605.847,1314.08Z"/>
                    </g>
                    <g transform="matrix(-1,-1.22465e-16,1.22465e-16,-1,1682.68,2464.79)">
                        <path d="M605.869,1314.08C628.448,1289.36 651.654,1264.41 662.79,1285.87C651.955,1305.3 638.547,1313.29 605.869,1314.08Z"/>
                    </g>
                </g>
            </g>
            <g transform="matrix(1.16338,0,0,5.61618,-479.806,-2544.16)">
                <path d="M2263.47,543.599C2265.14,515.905 2266.78,497.11 2266.89,495.771C2266.94,491.945 2270.07,488.857 2273.9,488.857C2277.74,488.857 2280.86,491.945 2280.92,495.771C2281.03,497.11 2282.66,515.904 2284.34,543.599L2284.39,544.536L2284.55,547.221C2285.06,550.213 2286.5,552.051 2289.29,554.01L2289.98,554.407C2293.44,555.948 2293.97,548.726 2294.48,543.599L2294.48,543.599C2296.04,522.589 2297.41,510.971 2297.53,509.737C2297.59,505.917 2300.71,502.835 2304.54,502.835C2308.38,502.835 2311.5,505.917 2311.56,509.737C2311.69,511.071 2313.28,527.705 2314.99,551.511C2336.47,541.094 2351.67,534.154 2352.89,533.599C2356.22,531.741 2360.45,532.901 2362.37,536.221C2364.29,539.541 2363.18,543.784 2359.9,545.746C2358.89,546.466 2350.79,551.192 2333.38,563.051L2333.38,563.052C2329.19,566.051 2323.2,570.124 2326.26,572.347L2326.95,572.745C2330.05,574.187 2332.35,574.51 2335.2,573.456L2337.61,572.252L2338.45,571.833C2363.27,559.436 2377.36,554.724 2378.57,554.152C2381.91,552.286 2386.15,553.445 2388.07,556.768C2389.98,560.092 2388.87,564.34 2385.58,566.299C2384.48,567.066 2372.03,574.606 2348.88,589.904L2348.1,590.422L2345.85,591.903C2343.51,593.841 2342.64,596.002 2342.34,599.403L2342.34,600.197C2342.74,603.961 2349.26,600.812 2353.95,598.685L2353.95,598.686C2372.93,589.535 2382.4,587.185 2383.53,586.671C2386.87,584.813 2391.1,585.974 2393.01,589.294C2394.93,592.614 2393.82,596.856 2390.54,598.818C2389.45,599.596 2375.84,609.292 2356.08,622.68C2375.84,636.069 2389.45,645.764 2390.54,646.542C2393.82,648.504 2394.93,652.747 2393.01,656.067C2391.1,659.387 2386.87,660.547 2383.53,658.689C2382.4,658.175 2371.91,655.33 2354.86,647.583L2354.86,647.583C2350.17,645.456 2343.64,642.307 2343.25,646.071L2343.25,646.866C2343.55,650.267 2344.42,652.428 2346.76,654.366L2349.01,655.847L2349.79,656.364C2372.93,671.662 2381.48,676.294 2382.58,677.061C2385.87,679.02 2386.98,683.268 2385.07,686.592C2383.15,689.915 2378.91,691.075 2375.57,689.208C2374.36,688.636 2350.88,679.649 2337.26,672.436L2336.42,672.017L2334.02,670.813C2331.17,669.759 2328.86,670.081 2325.77,671.524L2325.08,671.921C2322.02,674.145 2328.01,678.218 2332.19,681.217L2332.19,681.217C2339.64,685.856 2350.72,693.444 2351.72,694.164C2355,696.125 2356.11,700.368 2354.2,703.688C2352.28,707.008 2348.05,708.169 2344.71,706.311C2343.49,705.754 2326.64,699.366 2314.84,693.775C2313.94,700.707 2313.27,712.354 2311.56,717.451C2310.51,720.56 2308.38,724.356 2304.54,724.356C2300.71,724.356 2298.73,720.505 2297.53,717.451C2296.64,715.186 2295.53,708.84 2294.16,703.688C2292.97,699.244 2290.92,696.447 2289.29,696.801C2286.47,697.418 2284.89,701.608 2284.56,706.373L2284.5,707.212C2283.34,718.302 2282.68,723.207 2280.92,729.424C2280.02,732.581 2277.74,736.335 2273.9,736.335C2270.07,736.335 2267.79,732.58 2266.89,729.424C2265.12,723.22 2264.29,717.09 2263.31,707.291L2263.22,705.9C2262.87,701.314 2261.96,699.214 2258.51,696.801C2258.51,696.801 2258.51,696.801 2258.51,696.801C2256.28,695.859 2254.6,699.17 2253.33,703.692C2251.99,708.437 2250.94,714.285 2250.28,717.451C2249.6,720.662 2247.1,724.356 2243.26,724.356C2239.43,724.356 2236.88,720.671 2236.25,717.451C2235.12,711.683 2233.65,699.168 2232.95,693.605C2220.95,699.252 2203.38,707.577 2202.19,708.126C2198.85,709.986 2194.62,708.826 2192.7,705.505C2190.78,702.184 2191.9,697.94 2195.18,695.979C2196.16,695.279 2207.71,687.348 2215.57,681.408L2215.57,681.408C2219.77,678.404 2225.8,674.153 2222.71,671.913L2222.04,671.524C2219.08,670.144 2216.83,669.885 2214.15,670.834L2211.47,672.164L2210.53,672.628C2194.22,680.616 2173.47,688.632 2172.23,689.21C2168.89,691.074 2164.66,689.915 2162.74,686.592C2160.82,683.269 2161.93,679.022 2165.22,677.063C2166.34,676.28 2175.72,670.717 2198.78,655.356L2199.94,654.583C2203.73,651.984 2205.1,650.148 2205.46,645.957L2205.46,645.168C2205.07,641.382 2198.49,644.427 2193.79,646.555L2193.79,646.554C2174.85,655.785 2165.39,658.179 2164.28,658.687C2160.94,660.548 2156.71,659.388 2154.79,656.067C2152.88,652.746 2153.99,648.501 2157.27,646.541C2158.34,645.78 2172.08,636.062 2192.01,622.68C2172.08,609.298 2158.34,599.58 2157.27,598.82C2153.99,596.859 2152.88,592.615 2154.79,589.294C2156.71,585.972 2160.94,584.812 2164.28,586.673C2165.38,587.18 2174.88,589.593 2193.88,598.846L2193.88,598.846C2198.57,600.973 2205.07,603.979 2205.46,600.201L2205.46,599.403C2205.18,596.15 2204.33,594.105 2202.19,592.275L2199.62,590.569L2198.85,590.051C2175.76,574.666 2163.34,567.081 2162.22,566.297C2158.93,564.338 2157.82,560.091 2159.74,556.768C2161.66,553.446 2165.89,552.286 2169.23,554.151C2170.47,554.728 2184.54,559.37 2209.37,571.654L2210.62,572.272C2214.77,574.259 2217.04,574.522 2220.86,572.745C2220.86,572.745 2221.54,572.35 2221.54,572.35C2224.62,570.115 2218.69,565.938 2214.5,562.937L2214.5,562.936C2197.03,551.143 2188.9,546.452 2187.91,545.747C2184.63,543.787 2183.52,539.542 2185.43,536.221C2187.35,532.9 2191.58,531.74 2194.92,533.601C2196.11,534.149 2211.33,541.153 2232.8,551.68C2234.52,527.785 2236.12,511.074 2236.25,509.737C2236.31,505.917 2239.43,502.835 2243.26,502.835C2247.1,502.835 2250.22,505.917 2250.28,509.737C2250.39,510.971 2251.77,522.589 2253.33,543.599L2253.33,543.599C2253.83,548.726 2254.37,555.948 2257.82,554.407L2258.51,554.01C2261.31,552.051 2262.74,550.213 2263.25,547.221L2263.41,544.536L2263.47,543.599ZM2264.64,622.218C2264.51,628.895 2261.89,635.533 2256.8,640.625C2246.34,651.085 2229.36,651.085 2218.9,640.625C2208.44,630.165 2208.44,613.181 2218.9,602.721C2229.36,592.261 2246.34,592.261 2256.8,602.721C2259.3,605.216 2261.2,608.082 2262.5,611.142C2266.24,608.971 2270.03,607.938 2273.8,607.938C2277.59,607.938 2281.43,608.981 2285.29,611.181C2286.59,608.106 2288.5,605.226 2291,602.721C2301.46,592.261 2318.45,592.261 2328.91,602.721C2339.37,613.181 2339.37,630.165 2328.91,640.625C2318.45,651.085 2301.46,651.085 2291,640.625C2285.91,635.533 2283.3,628.895 2283.16,622.218C2282.91,622.088 2282.67,621.936 2282.44,621.762C2279.52,619.572 2276.68,618.355 2273.8,618.355C2270.97,618.355 2268.22,619.551 2265.43,621.71C2265.18,621.906 2264.92,622.075 2264.64,622.218ZM2226.26,610.087C2232.66,603.692 2243.04,603.692 2249.44,610.087C2255.83,616.482 2255.83,626.865 2249.44,633.259C2243.04,639.654 2232.66,639.654 2226.26,633.259C2219.87,626.865 2219.87,616.482 2226.26,610.087ZM2298.37,610.087C2304.76,603.692 2315.15,603.692 2321.54,610.087C2327.94,616.482 2327.94,626.865 2321.54,633.259C2315.15,639.654 2304.76,639.654 2298.37,633.259C2291.97,626.865 2291.97,616.482 2298.37,610.087Z"/>
            </g>
        </g>
    </g>
</svg>
