<?xml version="1.0" encoding="UTF-8" standalone="no"?>
<!DOCTYPE svg PUBLIC "-//W3C//DTD SVG 1.1//EN" "http://www.w3.org/Graphics/SVG/1.1/DTD/svg11.dtd">
<svg width="100%" height="100%" viewBox="0 0 1523 321" version="1.1" xmlns="http://www.w3.org/2000/svg" xmlns:xlink="http://www.w3.org/1999/xlink" xml:space="preserve" xmlns:serif="http://www.serif.com/" style="fill-rule:evenodd;clip-rule:evenodd;stroke-linejoin:round;stroke-miterlimit:2;">
    <g transform="matrix(1,0,0,1,-2141.37,-276.327)">
        <g id="Artboard2" transform="matrix(0.84573,0,0,0.178057,464.74,276.327)">
            <rect x="1982.46" y="0" width="1800" height="1800" style="fill:none;"/>
            <g transform="matrix(1.18241,0,0,5.61618,1955.87,-5853.47)">
                <g transform="matrix(1.48958,0,0,1.48958,-213.016,732.04)">
                    <g transform="matrix(201.738,0,0,201.738,373.826,388.184)">
                        <path d="M0.176,-0.237L0.024,-0.237C0.023,-0.193 0.031,-0.155 0.048,-0.123C0.065,-0.091 0.087,-0.065 0.116,-0.044C0.144,-0.023 0.177,-0.008 0.214,0.002C0.251,0.011 0.289,0.016 0.328,0.016C0.377,0.016 0.42,0.01 0.457,-0.001C0.494,-0.012 0.525,-0.028 0.55,-0.049C0.575,-0.069 0.593,-0.093 0.606,-0.121C0.619,-0.149 0.625,-0.179 0.625,-0.212C0.625,-0.252 0.616,-0.285 0.6,-0.311C0.583,-0.336 0.562,-0.357 0.539,-0.372C0.516,-0.387 0.492,-0.399 0.469,-0.406C0.445,-0.413 0.426,-0.417 0.413,-0.42C0.368,-0.431 0.332,-0.441 0.305,-0.448C0.277,-0.455 0.255,-0.463 0.24,-0.47C0.224,-0.477 0.213,-0.485 0.208,-0.494C0.203,-0.503 0.2,-0.514 0.2,-0.528C0.2,-0.543 0.203,-0.556 0.21,-0.566C0.217,-0.576 0.225,-0.584 0.236,-0.591C0.246,-0.598 0.257,-0.602 0.27,-0.605C0.283,-0.608 0.295,-0.609 0.308,-0.609C0.327,-0.609 0.345,-0.607 0.362,-0.604C0.378,-0.601 0.392,-0.595 0.405,-0.587C0.418,-0.579 0.428,-0.568 0.436,-0.554C0.443,-0.54 0.448,-0.522 0.449,-0.501L0.601,-0.501C0.601,-0.542 0.593,-0.578 0.578,-0.607C0.562,-0.636 0.541,-0.659 0.514,-0.678C0.487,-0.697 0.457,-0.71 0.423,-0.719C0.388,-0.727 0.352,-0.731 0.315,-0.731C0.283,-0.731 0.251,-0.727 0.219,-0.718C0.187,-0.709 0.158,-0.696 0.133,-0.678C0.108,-0.66 0.087,-0.638 0.072,-0.611C0.056,-0.584 0.048,-0.552 0.048,-0.515C0.048,-0.482 0.054,-0.455 0.067,-0.432C0.079,-0.409 0.095,-0.389 0.115,-0.374C0.135,-0.359 0.158,-0.346 0.183,-0.337C0.208,-0.327 0.234,-0.319 0.261,-0.312C0.287,-0.305 0.313,-0.298 0.338,-0.292C0.363,-0.286 0.386,-0.279 0.406,-0.271C0.426,-0.263 0.442,-0.253 0.455,-0.241C0.467,-0.229 0.473,-0.213 0.473,-0.194C0.473,-0.176 0.468,-0.161 0.459,-0.15C0.45,-0.138 0.438,-0.129 0.424,-0.122C0.41,-0.115 0.395,-0.111 0.379,-0.109C0.363,-0.106 0.348,-0.105 0.334,-0.105C0.313,-0.105 0.293,-0.108 0.274,-0.113C0.255,-0.117 0.238,-0.125 0.224,-0.136C0.209,-0.146 0.198,-0.159 0.189,-0.176C0.18,-0.193 0.176,-0.213 0.176,-0.237Z" style="fill:white;fill-rule:nonzero;"/>
                    </g>
                    <g transform="matrix(201.738,0,0,201.738,498.034,388.184)">
                        <path d="M0.539,0L0.539,-0.517L0.397,-0.517L0.397,-0.246C0.397,-0.193 0.388,-0.156 0.371,-0.133C0.354,-0.11 0.326,-0.098 0.287,-0.098C0.253,-0.098 0.229,-0.109 0.216,-0.13C0.203,-0.151 0.196,-0.182 0.196,-0.225L0.196,-0.517L0.054,-0.517L0.054,-0.199C0.054,-0.167 0.057,-0.138 0.063,-0.112C0.068,-0.085 0.078,-0.063 0.092,-0.045C0.106,-0.026 0.125,-0.012 0.15,-0.002C0.174,0.008 0.205,0.013 0.243,0.013C0.273,0.013 0.302,0.006 0.331,-0.007C0.36,-0.02 0.383,-0.042 0.401,-0.072L0.404,-0.072L0.404,0L0.539,0Z" style="fill:white;fill-rule:nonzero;"/>
                    </g>
                    <g transform="matrix(-201.738,-2.47058e-14,2.47058e-14,-201.738,1069.37,283.684)">
                        <path d="M0.539,0L0.539,-0.517L0.397,-0.517L0.397,-0.246C0.397,-0.193 0.388,-0.156 0.371,-0.133C0.354,-0.11 0.326,-0.098 0.287,-0.098C0.253,-0.098 0.229,-0.109 0.216,-0.13C0.203,-0.151 0.196,-0.182 0.196,-0.225L0.196,-0.517L0.054,-0.517L0.054,-0.199C0.054,-0.167 0.057,-0.138 0.063,-0.112C0.068,-0.085 0.078,-0.063 0.092,-0.045C0.106,-0.026 0.125,-0.012 0.15,-0.002C0.174,0.008 0.205,0.013 0.243,0.013C0.273,0.013 0.302,0.006 0.331,-0.007C0.36,-0.02 0.383,-0.042 0.401,-0.072L0.404,-0.072L0.404,0L0.539,0Z" style="fill:white;fill-rule:nonzero;"/>
                    </g>
                    <g transform="matrix(201.738,0,0,201.738,610.945,388.184)">
                        <path d="M0.054,-0.517L0.054,0L0.196,0L0.196,-0.233C0.196,-0.256 0.198,-0.278 0.203,-0.298C0.208,-0.318 0.216,-0.335 0.227,-0.351C0.238,-0.366 0.252,-0.377 0.27,-0.386C0.288,-0.395 0.31,-0.399 0.336,-0.399C0.345,-0.399 0.354,-0.399 0.363,-0.398C0.372,-0.397 0.38,-0.395 0.387,-0.394L0.387,-0.526C0.376,-0.529 0.365,-0.531 0.356,-0.531C0.338,-0.531 0.321,-0.528 0.304,-0.523C0.287,-0.518 0.272,-0.51 0.257,-0.501C0.242,-0.491 0.229,-0.479 0.218,-0.466C0.207,-0.452 0.198,-0.437 0.191,-0.421L0.189,-0.421L0.189,-0.517L0.054,-0.517Z" style="fill:white;fill-rule:nonzero;"/>
                    </g>
                    <g transform="matrix(201.738,0,0,201.738,684.44,388.184)">
                        <path d="M0.406,-0.335L0.545,-0.335C0.543,-0.368 0.535,-0.397 0.521,-0.422C0.507,-0.446 0.489,-0.466 0.467,-0.483C0.444,-0.499 0.419,-0.511 0.391,-0.519C0.362,-0.527 0.333,-0.531 0.302,-0.531C0.26,-0.531 0.223,-0.524 0.19,-0.51C0.157,-0.496 0.13,-0.476 0.107,-0.452C0.084,-0.427 0.067,-0.397 0.056,-0.363C0.044,-0.328 0.038,-0.291 0.038,-0.251C0.038,-0.212 0.044,-0.177 0.057,-0.145C0.07,-0.112 0.087,-0.084 0.11,-0.061C0.133,-0.038 0.16,-0.02 0.193,-0.007C0.225,0.007 0.26,0.013 0.299,0.013C0.368,0.013 0.424,-0.005 0.468,-0.041C0.512,-0.077 0.539,-0.129 0.548,-0.198L0.411,-0.198C0.406,-0.166 0.395,-0.14 0.377,-0.122C0.358,-0.102 0.332,-0.093 0.298,-0.093C0.276,-0.093 0.257,-0.098 0.242,-0.108C0.227,-0.118 0.215,-0.131 0.206,-0.147C0.197,-0.162 0.19,-0.18 0.186,-0.199C0.182,-0.218 0.18,-0.237 0.18,-0.256C0.18,-0.275 0.182,-0.295 0.186,-0.315C0.19,-0.334 0.197,-0.352 0.207,-0.369C0.216,-0.385 0.229,-0.398 0.244,-0.409C0.259,-0.419 0.278,-0.424 0.301,-0.424C0.362,-0.424 0.397,-0.394 0.406,-0.335Z" style="fill:white;fill-rule:nonzero;"/>
                    </g>
                    <g transform="matrix(201.738,0,0,201.738,794.19,388.184)">
                        <path d="M0.054,-0.714L0.054,0L0.196,0L0.196,-0.271C0.196,-0.324 0.205,-0.362 0.222,-0.385C0.239,-0.407 0.267,-0.419 0.306,-0.419C0.34,-0.419 0.364,-0.409 0.377,-0.388C0.39,-0.367 0.397,-0.335 0.397,-0.292L0.397,0L0.539,0L0.539,-0.318C0.539,-0.35 0.536,-0.379 0.531,-0.406C0.525,-0.432 0.515,-0.454 0.501,-0.473C0.487,-0.491 0.468,-0.505 0.444,-0.516C0.419,-0.526 0.388,-0.531 0.35,-0.531C0.323,-0.531 0.296,-0.524 0.268,-0.511C0.24,-0.497 0.217,-0.475 0.199,-0.445L0.196,-0.445L0.196,-0.714L0.054,-0.714Z" style="fill:white;fill-rule:nonzero;"/>
                    </g>
                    <g transform="matrix(201.738,0,0,201.738,905.758,388.184)">
                        <rect x="0.058" y="-0.517" width="0.142" height="0.517" style="fill:white;"/>
                    </g>
                    <g transform="matrix(0.713879,0,0,0.713879,93.0109,-538.81)">
                        <circle cx="1174.95" cy="1113.29" r="21.336" style="fill:white;"/>
                    </g>
                </g>
                <g>
                    <g transform="matrix(1,0,0,1,-4.69242,-0.0449112)">
                        <path d="M605.869,1314.18C628.448,1289.46 645.665,1272.99 662.79,1285.87C651.955,1305.3 638.547,1313.39 605.869,1314.18Z" style="fill:white;"/>
                    </g>
                    <g transform="matrix(-1,-1.22465e-16,1.22465e-16,-1,1908.84,2464.79)">
                        <path d="M608.505,1313.81C606.305,1314.06 604.093,1314.18 601.869,1314.18C590.45,1314.18 581.084,1312.68 573.772,1309.67C566.459,1306.67 560.7,1302.41 556.493,1296.9C552.286,1291.39 549.331,1284.68 547.628,1276.77C545.925,1268.85 545.073,1260.09 545.073,1250.47L545.073,1154.91L587.745,1154.91L587.745,1242.66C587.745,1255.48 589.749,1265.05 593.755,1271.36C597.762,1277.67 604.874,1280.82 615.091,1280.82C626.711,1280.82 635.125,1277.37 640.334,1270.45C645.542,1263.54 648.147,1252.17 648.147,1236.35L648.147,1154.91L690.819,1154.91L690.819,1310.27L650.25,1310.27L650.25,1297.21C641.3,1307.37 629.278,1312.45 608.505,1313.81Z" style="fill:white;fill-rule:nonzero;"/>
                    </g>
                    <g transform="matrix(-1,-1.22465e-16,1.22465e-16,-1,1409.55,2464.79)">
                        <path d="M605.847,1314.08C628.427,1289.36 651.654,1264.41 662.79,1285.87C651.955,1305.3 638.525,1313.29 605.847,1314.08Z" style="fill:white;"/>
                    </g>
                    <g transform="matrix(-1,-1.22465e-16,1.22465e-16,-1,1682.68,2464.79)">
                        <path d="M605.869,1314.08C628.448,1289.36 651.654,1264.41 662.79,1285.87C651.955,1305.3 638.547,1313.29 605.869,1314.08Z" style="fill:white;"/>
                    </g>
                </g>
            </g>
            <g transform="matrix(1.18241,0,0,5.61618,-549.514,-1551.9)">
                <g>
                    <path d="M2294.68,368.934C2295.9,349.535 2297.01,336.253 2297.1,335.261C2297.14,332.158 2299.67,329.653 2302.78,329.653C2305.9,329.653 2308.43,332.158 2308.47,335.261C2308.56,336.248 2309.66,349.409 2310.88,368.657L2310.96,370C2311.41,373.51 2313.59,374.649 2314.78,375.393C2314.78,375.393 2315.09,375.568 2315.09,375.568C2316.52,376.337 2319.2,376.986 2319.64,372.482L2319.64,372.482C2320.83,356.626 2321.86,345.926 2321.95,344.967C2322,341.869 2324.53,339.369 2327.64,339.369C2330.75,339.369 2333.28,341.869 2333.33,344.967C2333.42,345.921 2334.43,356.518 2335.62,372.243L2335.62,372.243C2336.16,376.619 2338.19,377.74 2341.41,376.294L2341.91,376.05C2356.22,369.174 2365.98,364.721 2366.85,364.322C2369.56,362.815 2372.99,363.756 2374.54,366.449C2376.1,369.142 2375.2,372.584 2372.54,374.175C2371.76,374.732 2363.07,380.922 2350.02,389.833L2349.76,390.012C2346.06,392.61 2348.24,394.704 2349.55,395.462L2350.03,395.739C2351.39,396.508 2353.6,397.481 2356.93,395.92L2357.43,395.674C2374.78,387.07 2386.78,381.416 2387.68,380.993C2390.39,379.479 2393.83,380.42 2395.39,383.115C2396.94,385.811 2396.04,389.257 2393.37,390.846C2392.56,391.411 2381.74,398.929 2365.7,409.594L2365.7,409.602L2365.57,409.68L2364.7,410.258C2361.77,412.429 2361.88,414.932 2361.83,416.357C2361.78,417.887 2362.34,421.071 2366.68,419.143C2381.03,412.242 2390.83,407.77 2391.7,407.37C2394.41,405.863 2397.84,406.804 2399.4,409.497C2400.95,412.19 2400.05,415.632 2397.39,417.223C2396.61,417.779 2387.94,423.96 2374.91,432.861L2374.91,432.861C2371.38,435.511 2371.38,437.78 2374.23,439.836L2374.7,440.155C2387.84,449.129 2396.61,455.373 2397.39,455.933C2400.05,457.524 2400.95,460.965 2399.4,463.658C2397.84,466.351 2394.41,467.293 2391.7,465.785C2390.83,465.389 2381.17,460.976 2366.98,454.158L2366.97,454.159C2362.61,451.979 2361.86,455.019 2361.85,456.562C2361.85,458.134 2361.74,461.052 2365.61,463.495L2365.61,463.501C2381.69,474.197 2392.56,481.744 2393.37,482.31C2396.04,483.899 2396.94,487.344 2395.39,490.04C2393.83,492.736 2390.39,493.676 2387.68,492.162C2386.79,491.742 2374.9,486.144 2357.7,477.613L2357.68,477.624C2357.58,477.564 2357.47,477.507 2357.37,477.453L2356.78,477.159C2353.34,475.588 2351.18,476.965 2349.9,477.649C2348.54,478.376 2346.03,480.48 2350,483.304L2350,483.307C2363.06,492.226 2371.76,498.423 2372.54,498.981C2375.2,500.572 2376.1,504.013 2374.54,506.706C2372.99,509.399 2369.56,510.341 2366.85,508.833C2365.98,508.437 2356.32,504.028 2342.15,497.217L2342.15,497.217C2338.04,495.47 2335.89,496.865 2335.55,500.486L2335.52,500.915C2334.39,516.651 2333.41,527.252 2333.33,528.186C2333.28,531.285 2330.75,533.787 2327.64,533.787C2324.53,533.787 2322,531.285 2321.95,528.186C2321.86,527.255 2320.89,516.708 2319.76,501.042L2319.73,500.996C2319.44,496.134 2316.43,497.002 2315.09,497.769C2313.85,498.482 2311.59,499.683 2311.07,503.37C2309.74,523.223 2308.56,536.874 2308.47,537.897C2308.43,540.998 2305.9,543.502 2302.78,543.502C2299.67,543.502 2297.14,540.998 2297.1,537.897C2297.01,536.896 2295.88,523.816 2294.59,504.669L2294.5,503.226C2294.02,499.794 2291.88,498.666 2290.7,497.928C2289.39,497.111 2286.31,495.984 2285.84,500.831L2285.82,500.855C2284.69,516.621 2283.71,527.248 2283.62,528.186C2283.57,531.285 2281.04,533.787 2277.93,533.787C2274.82,533.787 2272.29,531.285 2272.24,528.186C2272.16,527.252 2271.18,516.651 2270.05,500.915L2270.05,500.916C2269.51,496.486 2267.13,495.383 2263.83,496.909L2263.44,497.099C2249.24,503.988 2239.57,508.441 2238.72,508.832C2236.01,510.341 2232.58,509.4 2231.03,506.706C2229.47,504.012 2230.37,500.57 2233.03,498.98C2233.82,498.425 2242.89,492.005 2256.45,482.831C2259.24,480.465 2257.24,478.586 2256.02,477.877C2254.67,477.086 2252.19,475.533 2248.14,477.664L2248.1,477.626C2230.77,486.14 2218.8,491.737 2217.88,492.164C2215.18,493.676 2211.74,492.735 2210.19,490.04C2208.63,487.345 2209.53,483.9 2212.2,482.311C2213.02,481.735 2223.8,474.201 2239.76,463.499L2239.76,463.479C2239.87,463.415 2239.98,463.35 2240.08,463.285L2240.71,462.863C2243.7,460.695 2243.61,458.173 2243.66,456.74C2243.71,455.211 2243.17,452.025 2238.83,453.932C2224.5,460.888 2214.73,465.389 2213.87,465.784C2211.16,467.293 2207.73,466.352 2206.17,463.658C2204.62,460.964 2205.52,457.522 2208.18,455.932C2208.94,455.389 2217.64,449.24 2230.7,440.394L2230.7,440.394C2234.26,437.711 2234.03,435.105 2231.06,433.006L2230.7,432.762C2217.64,423.915 2208.94,417.766 2208.18,417.224C2205.52,415.634 2204.62,412.191 2206.17,409.497C2207.73,406.803 2211.16,405.862 2213.87,407.372C2214.72,407.763 2224.37,412.207 2238.54,419.085L2238.77,419.194C2242.93,421.164 2243.71,418.293 2243.72,416.777C2243.72,415.281 2243.8,412.497 2240.46,410.125L2239.93,409.769C2223.87,399.007 2213.02,391.423 2212.2,390.845C2209.53,389.255 2208.63,385.811 2210.19,383.115C2211.74,380.42 2215.18,379.48 2217.88,380.992C2218.8,381.418 2230.76,387.007 2248.06,395.508L2249.38,396.158C2252.59,397.453 2254.72,396.157 2255.95,395.508C2255.95,395.508 2256.25,395.333 2256.25,395.333C2257.61,394.483 2259.39,392.472 2255.72,389.829L2255.72,389.829C2242.57,380.923 2233.8,374.722 2233.03,374.176C2230.37,372.586 2229.47,369.143 2231.03,366.449C2232.58,363.755 2236.01,362.814 2238.72,364.324C2239.57,364.715 2249.24,369.167 2263.44,376.056L2263.44,376.056C2267.5,377.783 2269.53,376.553 2269.89,373.034L2269.93,372.483C2271.13,356.627 2272.15,345.926 2272.24,344.967C2272.29,341.869 2274.82,339.369 2277.93,339.369C2281.04,339.369 2283.57,341.869 2283.62,344.967C2283.71,345.926 2284.74,356.626 2285.93,372.482L2285.96,372.813C2286.36,377.297 2289.17,376.319 2290.48,375.57L2291.26,375.121C2292.6,374.307 2294.35,372.885 2294.64,369.463L2294.68,368.934ZM2334.2,446.222C2328.53,449.404 2321.22,448.587 2316.4,443.769C2310.6,437.967 2310.6,428.547 2316.4,422.745C2322.2,416.943 2331.62,416.943 2337.43,422.745C2342.24,427.562 2343.06,434.874 2339.88,440.539L2347.24,447.903C2348.81,449.472 2348.81,452.018 2347.24,453.586C2345.68,455.155 2343.13,455.155 2341.56,453.586L2334.2,446.222ZM2261.5,423.664C2255.7,429.466 2255.7,438.887 2261.5,444.689C2267.3,450.491 2276.72,450.491 2282.53,444.689C2288.33,438.887 2288.33,429.466 2282.53,423.664C2276.72,417.862 2267.3,417.862 2261.5,423.664ZM2267.18,429.347C2269.85,426.681 2274.18,426.681 2276.84,429.347C2279.51,432.012 2279.51,436.34 2276.84,439.006C2274.18,441.671 2269.85,441.671 2267.18,439.006C2264.52,436.34 2264.52,432.012 2267.18,429.347ZM2322.09,428.427C2324.75,425.762 2329.08,425.762 2331.74,428.427C2334.41,431.093 2334.41,435.421 2331.74,438.086C2329.08,440.752 2324.75,440.752 2322.09,438.086C2319.42,435.421 2319.42,431.093 2322.09,428.427Z" style="fill:white;"/>
                </g>
            </g>
        </g>
    </g>
</svg>
